<svg xmlns="http://www.w3.org/2000/svg" viewBox="0 0 64 64" role="img" aria-label="Halyard Security professional logo">
  <defs>
    <linearGradient id="badge" x1="0" x2="1" y1="0" y2="1">
      <stop offset="0%" stop-color="#0f172a" />
      <stop offset="100%" stop-color="#1d4ed8" />
    </linearGradient>
    <linearGradient id="inner" x1="0" x2="0" y1="0" y2="1">
      <stop offset="0%" stop-color="#1e3a8a" />
      <stop offset="100%" stop-color="#1d4ed8" />
    </linearGradient>
  </defs>

  <rect x="6" y="6" width="52" height="52" rx="12" fill="url(#badge)" />
  <rect x="11.5" y="11.5" width="41" height="41" rx="9.5" fill="none" stroke="#93c5fd" stroke-width="1.2" opacity="0.45" />

  <path d="M32 16.2l13 5.1v11c0 8.8-5.1 14.7-13 18.8-7.9-4.1-13-10-13-18.8v-11l13-5.1z" fill="#dbeafe" />
  <path d="M32 20.4l9.2 3.6v8.2c0 6.9-3.9 11.5-9.2 14.5-5.3-3-9.2-7.6-9.2-14.5V24l9.2-3.6z" fill="url(#inner)" />

  <path d="M37.6 27.1c-1.1-.9-2.8-1.5-4.7-1.5-2.4 0-3.9.8-3.9 2.1 0 1.5 1.6 1.9 4.2 2.2 3.2.4 6.3 1.3 6.3 5.1 0 3.6-3 5.6-7 5.6-3 0-5.6-.9-7.4-2.7l2-2.3c1.5 1.3 3.4 2 5.5 2 2.2 0 3.6-.8 3.6-2.2 0-1.4-1.2-1.9-4-2.2-3.7-.5-6.4-1.5-6.4-5.1 0-3.4 2.9-5.5 7.1-5.5 2.6 0 4.8.7 6.4 2.1l-1.7 2.4z" fill="#ffffff" />

  <path d="M23 45.4h18" stroke="#bfdbfe" stroke-width="1.5" stroke-linecap="round" opacity="0.85" />
</svg>
